<svg width="329" height="180" viewBox="0 0 329 180" fill="none" xmlns="http://www.w3.org/2000/svg">
<circle cx="90" cy="90" r="89.5" fill="white" fill-opacity="0.2" stroke="#EFA359"/>
<circle cx="90" cy="90" r="75" fill="#F3BA82" fill-opacity="0.8"/>
<path d="M134.41 93.5757H137.768C137.7 94.6763 137.397 95.6533 136.858 96.5068C136.326 97.3604 135.581 98.0267 134.623 98.5059C133.672 98.985 132.527 99.2246 131.187 99.2246C130.138 99.2246 129.199 99.0449 128.368 98.6855C127.537 98.3187 126.825 97.7946 126.234 97.1133C125.65 96.432 125.204 95.6084 124.897 94.6426C124.59 93.6768 124.437 92.5949 124.437 91.397V90.2627C124.437 89.0648 124.594 87.9829 124.909 87.0171C125.231 86.0438 125.687 85.2165 126.279 84.5352C126.878 83.8538 127.593 83.3298 128.424 82.9629C129.255 82.596 130.183 82.4126 131.209 82.4126C132.572 82.4126 133.721 82.6597 134.657 83.1538C135.6 83.6479 136.33 84.3293 136.847 85.1978C137.371 86.0662 137.685 87.0545 137.79 88.1626H134.421C134.383 87.5037 134.252 86.946 134.028 86.4893C133.803 86.0251 133.463 85.6769 133.006 85.4448C132.557 85.2052 131.958 85.0854 131.209 85.0854C130.647 85.0854 130.157 85.1903 129.738 85.3999C129.319 85.6095 128.967 85.9277 128.682 86.3545C128.398 86.7812 128.184 87.3203 128.042 87.9717C127.907 88.6156 127.84 89.3717 127.84 90.2402V91.397C127.84 92.243 127.903 92.988 128.031 93.6318C128.158 94.2682 128.353 94.8073 128.615 95.249C128.884 95.6833 129.229 96.0127 129.648 96.2373C130.075 96.4544 130.588 96.563 131.187 96.563C131.89 96.563 132.471 96.4507 132.927 96.2261C133.384 96.0015 133.732 95.6683 133.972 95.2266C134.219 94.7848 134.365 94.2345 134.41 93.5757ZM141.519 82.6484H144.371L148.571 94.6538L152.771 82.6484H155.624L149.717 99H147.426L141.519 82.6484ZM139.98 82.6484H142.821L143.338 94.3506V99H139.98V82.6484ZM154.321 82.6484H157.174V99H153.805V94.3506L154.321 82.6484ZM173.559 90.4424V91.2173C173.559 92.4601 173.391 93.5757 173.054 94.564C172.717 95.5522 172.241 96.3945 171.627 97.0908C171.014 97.7796 170.28 98.3075 169.426 98.6743C168.58 99.0412 167.641 99.2246 166.607 99.2246C165.582 99.2246 164.642 99.0412 163.789 98.6743C162.943 98.3075 162.209 97.7796 161.587 97.0908C160.966 96.3945 160.483 95.5522 160.139 94.564C159.802 93.5757 159.633 92.4601 159.633 91.2173V90.4424C159.633 89.1921 159.802 88.0765 160.139 87.0957C160.476 86.1074 160.951 85.2651 161.565 84.5688C162.186 83.8726 162.92 83.341 163.766 82.9741C164.62 82.6073 165.559 82.4238 166.585 82.4238C167.618 82.4238 168.558 82.6073 169.404 82.9741C170.257 83.341 170.991 83.8726 171.605 84.5688C172.226 85.2651 172.706 86.1074 173.042 87.0957C173.387 88.0765 173.559 89.1921 173.559 90.4424ZM170.156 91.2173V90.4199C170.156 89.5514 170.078 88.7878 169.92 88.1289C169.763 87.4701 169.531 86.916 169.224 86.4668C168.917 86.0176 168.543 85.6807 168.101 85.4561C167.659 85.224 167.154 85.1079 166.585 85.1079C166.016 85.1079 165.511 85.224 165.069 85.4561C164.635 85.6807 164.264 86.0176 163.957 86.4668C163.658 86.916 163.429 87.4701 163.272 88.1289C163.115 88.7878 163.036 89.5514 163.036 90.4199V91.2173C163.036 92.0783 163.115 92.842 163.272 93.5083C163.429 94.1672 163.661 94.7249 163.968 95.1816C164.275 95.6309 164.65 95.9715 165.091 96.2036C165.533 96.4357 166.038 96.5518 166.607 96.5518C167.176 96.5518 167.682 96.4357 168.124 96.2036C168.565 95.9715 168.936 95.6309 169.235 95.1816C169.535 94.7249 169.763 94.1672 169.92 93.5083C170.078 92.842 170.156 92.0783 170.156 91.2173ZM182.532 82.6484V99H179.174V82.6484H182.532ZM187.563 82.6484V85.2876H174.222V82.6484H187.563ZM195.852 93.1714H191.685V90.5435H195.852C196.495 90.5435 197.02 90.4386 197.424 90.229C197.828 90.0119 198.124 89.7124 198.311 89.3306C198.498 88.9487 198.592 88.5182 198.592 88.0391C198.592 87.5524 198.498 87.0994 198.311 86.6802C198.124 86.2609 197.828 85.924 197.424 85.6694C197.02 85.4149 196.495 85.2876 195.852 85.2876H192.853V99H189.484V82.6484H195.852C197.132 82.6484 198.229 82.8805 199.142 83.3447C200.063 83.8014 200.767 84.4341 201.253 85.2427C201.74 86.0513 201.983 86.9759 201.983 88.0166C201.983 89.0723 201.74 89.9857 201.253 90.7568C200.767 91.528 200.063 92.1232 199.142 92.5425C198.229 92.9618 197.132 93.1714 195.852 93.1714ZM215.28 96.3721V99H206.577V96.3721H215.28ZM207.677 82.6484V99H204.308V82.6484H207.677ZM214.146 89.3081V91.8687H206.577V89.3081H214.146ZM215.269 82.6484V85.2876H206.577V82.6484H215.269ZM224.781 82.6484V99H221.423V82.6484H224.781ZM229.812 82.6484V85.2876H216.471V82.6484H229.812ZM234.091 88.6118H237.91C239.197 88.6118 240.306 88.8252 241.234 89.252C242.162 89.6787 242.877 90.2777 243.379 91.0488C243.881 91.82 244.131 92.7184 244.131 93.7441C244.131 94.5228 243.989 95.234 243.705 95.8779C243.42 96.5143 243.005 97.0684 242.458 97.54C241.919 98.0042 241.268 98.3636 240.504 98.6182C239.74 98.8727 238.875 99 237.91 99H231.89V82.6484H235.271V96.3721H237.91C238.554 96.3721 239.085 96.2523 239.504 96.0127C239.924 95.7731 240.238 95.4549 240.448 95.0581C240.665 94.6538 240.773 94.2083 240.773 93.7217C240.773 93.2575 240.665 92.8382 240.448 92.4639C240.238 92.082 239.924 91.7826 239.504 91.5654C239.085 91.3483 238.554 91.2397 237.91 91.2397H234.091V88.6118ZM258.417 91.8237H254.216L254.194 89.5103H257.72C258.342 89.5103 258.851 89.4316 259.248 89.2744C259.644 89.1097 259.94 88.8739 260.135 88.5669C260.337 88.2524 260.438 87.8706 260.438 87.4214C260.438 86.9123 260.341 86.5005 260.146 86.186C259.959 85.8716 259.663 85.6432 259.259 85.501C258.862 85.3587 258.349 85.2876 257.72 85.2876H255.384V99H252.015V82.6484H257.72C258.671 82.6484 259.521 82.7383 260.27 82.918C261.026 83.0977 261.666 83.3709 262.19 83.7378C262.714 84.1047 263.115 84.5688 263.392 85.1304C263.669 85.6844 263.807 86.3433 263.807 87.1069C263.807 87.7808 263.654 88.4022 263.347 88.9712C263.047 89.5402 262.572 90.0044 261.92 90.3638C261.277 90.7231 260.434 90.9215 259.394 90.959L258.417 91.8237ZM258.271 99H253.295L254.609 96.3721H258.271C258.862 96.3721 259.345 96.2785 259.719 96.0913C260.094 95.8966 260.371 95.6346 260.55 95.3052C260.73 94.9757 260.82 94.5977 260.82 94.1709C260.82 93.6917 260.737 93.2762 260.573 92.9243C260.416 92.5724 260.161 92.3029 259.809 92.1157C259.457 91.9211 258.993 91.8237 258.417 91.8237H255.171L255.193 89.5103H259.236L260.011 90.4199C261.007 90.4049 261.808 90.5809 262.415 90.9478C263.028 91.3071 263.474 91.7751 263.751 92.3516C264.035 92.9281 264.178 93.5457 264.178 94.2046C264.178 95.2528 263.949 96.1362 263.493 96.855C263.036 97.5662 262.366 98.1016 261.482 98.4609C260.606 98.8203 259.536 99 258.271 99ZM269.95 93.6992L276.52 82.6484H279.889V99H276.52V87.9492L269.95 99H266.581V82.6484H269.95V93.6992ZM296.027 96.3721V99H284.247V96.3721H296.027ZM285.246 96.3721V103.009H282.079L281.899 96.3721H285.246ZM298.453 96.3721L298.161 103.021H295.073V96.3721H298.453ZM294.174 82.6484V85.2876H286.302V82.6484H294.174ZM296.578 82.6484V99H293.22V82.6484H296.578ZM285.886 82.6484H289.255L288.817 89.3081C288.75 90.4087 288.63 91.382 288.458 92.228C288.293 93.0666 288.091 93.804 287.852 94.4404C287.619 95.0768 287.361 95.6346 287.077 96.1138C286.792 96.5854 286.493 96.9972 286.178 97.3491C285.864 97.6935 285.546 98.0005 285.224 98.27C284.902 98.5321 284.587 98.7754 284.28 99H282.349V96.3721H283.101C283.318 96.1924 283.547 95.9453 283.786 95.6309C284.033 95.3164 284.265 94.8934 284.482 94.3618C284.707 93.8228 284.902 93.1414 285.066 92.3179C285.239 91.4943 285.366 90.491 285.448 89.3081L285.886 82.6484ZM311.166 96.3721V99H302.462V96.3721H311.166ZM303.563 82.6484V99H300.194V82.6484H303.563ZM310.032 89.3081V91.8687H302.462V89.3081H310.032ZM311.155 82.6484V85.2876H302.462V82.6484H311.155ZM326.563 90.4424V91.2173C326.563 92.4601 326.395 93.5757 326.058 94.564C325.721 95.5522 325.245 96.3945 324.631 97.0908C324.017 97.7796 323.284 98.3075 322.43 98.6743C321.584 99.0412 320.645 99.2246 319.611 99.2246C318.586 99.2246 317.646 99.0412 316.792 98.6743C315.946 98.3075 315.213 97.7796 314.591 97.0908C313.97 96.3945 313.487 95.5522 313.143 94.564C312.806 93.5757 312.637 92.4601 312.637 91.2173V90.4424C312.637 89.1921 312.806 88.0765 313.143 87.0957C313.479 86.1074 313.955 85.2651 314.569 84.5688C315.19 83.8726 315.924 83.341 316.77 82.9741C317.624 82.6073 318.563 82.4238 319.589 82.4238C320.622 82.4238 321.562 82.6073 322.408 82.9741C323.261 83.341 323.995 83.8726 324.609 84.5688C325.23 85.2651 325.709 86.1074 326.046 87.0957C326.391 88.0765 326.563 89.1921 326.563 90.4424ZM323.16 91.2173V90.4199C323.16 89.5514 323.082 88.7878 322.924 88.1289C322.767 87.4701 322.535 86.916 322.228 86.4668C321.921 86.0176 321.547 85.6807 321.105 85.4561C320.663 85.224 320.158 85.1079 319.589 85.1079C319.02 85.1079 318.514 85.224 318.073 85.4561C317.639 85.6807 317.268 86.0176 316.961 86.4668C316.661 86.916 316.433 87.4701 316.276 88.1289C316.119 88.7878 316.04 89.5514 316.04 90.4199V91.2173C316.04 92.0783 316.119 92.842 316.276 93.5083C316.433 94.1672 316.665 94.7249 316.972 95.1816C317.279 95.6309 317.653 95.9715 318.095 96.2036C318.537 96.4357 319.042 96.5518 319.611 96.5518C320.18 96.5518 320.686 96.4357 321.127 96.2036C321.569 95.9715 321.94 95.6309 322.239 95.1816C322.539 94.7249 322.767 94.1672 322.924 93.5083C323.082 92.842 323.16 92.0783 323.16 91.2173Z" fill="white"/>
<path d="M107.5 85.6699C110.833 87.5944 110.833 92.4056 107.5 94.3301L85 107.321C81.6667 109.245 77.5 106.839 77.5 102.99V77.0096C77.5 73.1606 81.6667 70.755 85 72.6795L107.5 85.6699Z" fill="white"/>
</svg>
